<svg xmlns="http://www.w3.org/2000/svg"   viewBox="0 0 1920 1080" id="task-list"><g fill="#2A94F4"><path d="M600.527 1028.367c-110.05-55.774-309.335-66.827-291.268-419.183C327.326 256.828 808.775 245.123 864.615 70.95c55.84-174.172 643.479-23.512 295.752 406.166-61.573 76.084 82.965 160.556 57.671 298.991s-507.46 308.034-617.511 252.26z" opacity=".11"></path><ellipse cx="815.141" cy="1019.475" opacity=".11" rx="393.864" ry="60.525"></ellipse></g><path fill="#0B4870" d="M1112.88 1011.579H490.99c-13.255 0-24-10.745-24-24V130.18c0-13.255 10.745-24 24-24h621.89c13.255 0 24 10.745 24 24v857.399c0 13.255-10.745 24-24 24z"></path><path fill="#F7F7F7" d="M1083.076 978.979H520.794c-13.255 0-24-10.745-24-24V162.78c0-13.255 10.745-24 24-24h562.281c13.255 0 24 10.745 24 24v792.198c.001 13.256-10.744 24.001-23.999 24.001z"></path><path fill="#2A94F4" d="M577.04 251.983h85.528v85.528H577.04z" opacity=".11"></path><path fill="#FFBE55" d="M572.711 276.352c4.341 2.213 8.357 4.731 12.273 7.344 3.892 2.634 7.693 5.355 11.353 8.207 7.361 5.666 14.304 11.725 20.957 18.055l-14.762 1.092a153.91 153.91 0 0 1 6.663-9.759c2.291-3.146 4.709-6.185 7.202-9.168 5.015-5.94 10.379-11.605 16.212-16.831 5.864-5.196 12.108-10.031 18.904-14.128 6.839-4.013 14.125-7.517 21.989-9.181-5.037 6.266-9.748 12.047-14.367 17.91l-13.631 17.502a2519.143 2519.143 0 0 1-13.627 17.366l-13.7 17.128-7.661 9.577-7.102-8.484c-5.894-7.042-11.499-14.356-16.686-22.062-2.614-3.834-5.087-7.8-7.468-11.852-2.359-4.074-4.617-8.243-6.549-12.716z"></path><path fill="#2A94F4" d="M577.04 502.68h85.528v85.528H577.04zM577.04 759.764h85.528v85.528H577.04z" opacity=".11"></path><path fill="#2A94F4" d="M701.06 251.983h335.447v13.771H701.06zM701.06 287.862h335.447v13.771H701.06zM847.661 323.74h188.846v13.771H701.06V323.74h146.601M701.06 502.68h335.447v13.771H701.06zM701.06 538.558h335.447v13.771H701.06zM701.06 574.436h159.85v13.771H701.06zM701.06 759.764h335.447v13.771H701.06zM701.06 795.642h321.853v13.771H701.06zM701.06 831.52h335.447v13.771H701.06z" opacity=".52"></path><path fill="#FFBE55" d="M949.751 150.324H654.119V86.036c0-13.255 10.745-24 24-24h247.632c13.255 0 24 10.745 24 24v64.288z"></path><g fill="#FFBE55"><path d="M693.488 880.179h287.87v175.129h-287.87zM981.358 880.179h-287.87l23.588-52.841h240.695z"></path><path d="M693.488 880.179h287.87v175.129h-287.87z" opacity=".11"></path></g><path fill="#0E538C" d="M792.765 584.688s-67.22 75.961-72.029 101.382c-4.809 25.421 60.92 137.778 60.92 137.778l-30.541 21.287 60.947-5.826s-25.649-93.276-40.228-125.041c19.608-13.295 66.838-65.335 66.838-65.335l43.809 102.074 18.885 116.637 50.63 14.9-29.557-32.068c5.238-85.727 5.141-85.747 8.974-111.952 3.665-25.05-18.068-115.911-24.483-144.867-6.414-28.955-95.208-20.887-114.165-8.969z"></path><path fill="#FCD2B1" d="M777.516 357.174c.903 3.423 22.225 93.367 22.225 93.367s-19.38 9.487-27.423-1.373-10.733-93.128-10.733-93.128l15.931 1.134z"></path><path fill="#FCD2B1" d="M774.045 339.36s-11.725-10.121-15.357-2.526c-3.632 7.596 2.767 15.676 2.897 19.206s15.931 1.134 15.931 1.134 4.057-11.49-3.471-17.814z"></path><path fill="#FFBE55" d="M781.399 354.288 657.28 307.839s-11.166 12.459-7.224 27.35l125.896 28.685s6.628 1.632 5.447-9.586z"></path><path fill="#FCD2B1" d="m851.962 415.632-10.834 28.903s1.324 13.701 16.315 13.983c14.991.282 17.487-8.385 17.487-8.385l-2.473-34.289c.001.001-14.09-3.904-20.495-.212zM757.298 438.06l-14.887-2.964-11.421-62.745 14.188-15.431-10.211-2.94s2.026-12.635.518-19.149c-1.509-6.513-5.792-8.156-16.452-3.96-5.62 3.261-10.061 23.56-4.723 35.069 5.338 11.51 4.807 83.938 3.699 95.579-1.108 11.641 31.305 19.179 31.305 19.179s15.506 2.135 20.579-14.096-12.595-28.542-12.595-28.542z"></path><path fill="#FFBE55" d="M853.958 439.537c-11.892-2.357-26.013-3.378-41.986-1.4-28.555 1.13-54.674-.077-54.674-.077s-11.475 20.013-7.983 42.637c0 0 28.458 17.405 55.866 18.501 3.13 12.851-1.764 70.987-12.416 85.489 8.018 12.445 75.385 27.143 114.165 8.97 6.59-12.807-.09-67.386-5.504-103.628-3.747-25.088-22.584-45.558-47.468-50.492z"></path><path fill="#FFE3CA" d="M847.162 368.219s-21.5 26.286-18.976 36.383c2.526 10.097 14.63 19.492 43.321 22.676 9.848-1.476 20.746-30.886 20.497-37.04-1.629-40.278-34.264-28.813-44.842-22.019z"></path><path fill="#0B4870" d="M873.95 382.785s-37.548-6.064-41.204-25.031c-3.655-18.967 26.993-28.713 40.581-22.783 5.788 2.526 8.712 6.957 12.116 11.939 3.829 5.604 8.573 7.497 14.684 10.737 1.967 1.043 3.945 2.094 5.699 3.466 9.47 7.412 6.109 16.214 4.51 26.135-1.536 9.532-3.018 19.34-9.272 27.099-10.877 13.491-29.107 11.397-28.604 1.496.501-9.898 11.606-30.713 1.49-33.058zM781.655 823.848s18.342-.353 25.324-2.356c3.127 10.8 5.083 17.817 5.083 17.817l-60.947 5.826 30.54-21.287zM898.098 846.279c8.78 5.083 24.342 4.198 24.342 4.198l29.557 32.067-50.631-16.08-3.268-20.185z"></path><path fill="#FFE3CA" d="m657.28 307.839-34.175 2.194 26.951 25.156 7.224 1.646-7.375-9.036 11.443.602-8.432-9.034 12.948.301-10.238-6.925 11.388-1.261z"></path><path fill="#FFBE55" d="M639.937 308.952s.524 9.763-4.842 12.272l-11.99-11.192 16.832-1.08z"></path><path fill="#FAB9AF" d="M776.379 352.41s-11.669 3.211-24.316-1.306.675-18.86 9.522-17.861c8.847.998 20.601 8.929 14.794 19.167z"></path></svg>